<?xml version="1.0" encoding="UTF-8"?>
<!DOCTYPE svg PUBLIC "-//W3C//DTD SVG 1.1//EN" "http://www.w3.org/Graphics/SVG/1.1/DTD/svg11.dtd">
<!-- Creator: CorelDRAW 2021.5 -->
<svg xmlns="http://www.w3.org/2000/svg" xml:space="preserve" width="53.6827mm" height="25.2079mm" version="1.1" style="shape-rendering:geometricPrecision; text-rendering:geometricPrecision; image-rendering:optimizeQuality; fill-rule:evenodd; clip-rule:evenodd"
viewBox="0 0 2668.36 1252.99"
 xmlns:xlink="http://www.w3.org/1999/xlink"
 xmlns:xodm="http://www.corel.com/coreldraw/odm/2003">
 <defs>
  <style type="text/css">
   <![CDATA[
    .str2 {stroke:#0037FF;stroke-width:12.43;stroke-miterlimit:22.9256}
    .str7 {stroke:#2B2A29;stroke-width:9.94;stroke-miterlimit:22.9256}
    .str6 {stroke:#E63C24;stroke-width:9.94;stroke-miterlimit:22.9256}
    .str3 {stroke:#2B2A29;stroke-width:4.97;stroke-miterlimit:22.9256}
    .str8 {stroke:#2B2A29;stroke-width:4.97;stroke-miterlimit:22.9256}
    .str1 {stroke:#CCCCCC;stroke-width:12.43;stroke-miterlimit:22.9256;stroke-dasharray:12.426551 12.426551}
    .str4 {stroke:#CCCCCC;stroke-width:12.43;stroke-miterlimit:22.9256;stroke-dasharray:12.426551 12.426551}
    .str5 {stroke:#D1CEC6;stroke-width:12.43;stroke-miterlimit:22.9256;stroke-dasharray:12.426551 12.426551}
    .str0 {stroke:#999999;stroke-width:4.97;stroke-miterlimit:22.9256;stroke-dasharray:49.706204 24.853102}
    .fil0 {fill:none}
    .fil1 {fill:#FEFEFE}
    .fil2 {fill:#2B2A29}
    .fil3 {fill:#2B2A29;fill-rule:nonzero}
    .fnt4 {font-weight:normal;font-size:105.2px;font-family:'Times New Roman'}
    .fnt2 {font-weight:normal;font-size:157.81px;font-family:'Symbol'}
    .fnt0 {font-style:italic;font-weight:normal;font-size:157.81px;font-family:'Times New Roman'}
    .fnt1 {font-weight:normal;font-size:78.91px;font-family:'Times New Roman';baseline-shift:sub}
    .fnt3 {font-style:italic;font-weight:normal;font-size:78.91px;font-family:'Times New Roman';baseline-shift:sub}
   ]]>
  </style>
 </defs>
 <g id="Ebene_x0020_1">
  <metadata id="CorelCorpID_0Corel-Layer"/>
  <path class="fil0 str0" d="M231.76 90.14c310.45,-49.64 855.17,-56.32 1359.62,65.85 496.05,120.13 961.82,342.74 1074.61,700.29"/>
  <path class="fil0 str1" d="M1938.54 749.71c0,274.52 -222.54,497.06 -497.06,497.06 -274.52,0 -497.06,-222.54 -497.06,-497.06 0,-274.52 222.54,-497.06 497.06,-497.06 35.62,0 70.38,3.75 103.88,10.87"/>
  <path class="fil0 str1" d="M1914.27 595.85c15.75,48.45 24.27,100.16 24.27,153.86"/>
  <path class="fil0 str2" d="M1545.36 263.52c174.15,37.03 314.58,165.26 368.91,332.33"/>
  <g id="_2985550607824">
   <line class="fil0 str3" x1="1441.48" y1="650.3" x2="1441.48" y2= "849.13" />
   <line class="fil0 str3" x1="1342.07" y1="749.71" x2="1540.89" y2= "749.71" />
  </g>
  <path class="fil0 str1" d="M1545.51 261.14c444.07,97.59 850.63,289.72 1019.33,628.35"/>
  <path class="fil0 str4" d="M1084.7 192.09c152.65,13.34 308.92,35.66 460.82,69.05"/>
  <path class="fil0 str5" d="M244.53 207.66c214.33,-32 519.23,-43.63 840.17,-15.57"/>
  <line class="fil0 str6" x1="1539.85" y1="289.32" x2="1905.75" y2= "368.43" />
  <line class="fil0 str6" x1="1905.75" y1="368.43" x2="2564.85" y2= "889.49" />
  <line class="fil0 str6" x1="244.53" y1="207.66" x2="1084.54" y2= "190.89" />
  <circle class="fil1 str7" cx="1084.54" cy="190.89" r="17.4"/>
  <circle class="fil1 str7" cx="1084.54" cy="190.89" r="17.4"/>
  <circle class="fil1 str7" cx="244.53" cy="207.66" r="17.4"/>
  <circle class="fil1 str7" cx="2564.84" cy="889.49" r="17.4"/>
  <text x="115.42" y="120.64"  class="fil2 fnt0">p</text>
  <text x="194.33" y="152.2"  class="fil2 fnt1">0</text>
  <text x="2428.21" y="1008.27"  class="fil2 fnt0">p</text>
  <text x="2507.12" y="1039.83"  class="fil2 fnt1">3</text>
  <text x="1025.95" y="103.53"  class="fil2 fnt0">p</text>
  <text x="1104.86" y="135.1"  class="fil2 fnt1">1</text>
  <text x="1940.82" y="278.33"  class="fil2 fnt0">p</text>
  <text x="2019.73" y="309.89"  class="fil2 fnt1">2</text>
  <circle class="fil1 str7" cx="1905.75" cy="368.43" r="17.4"/>
  <line class="fil0 str3" x1="1441.48" y1="749.71" x2="1938.54" y2= "749.71" />
  <line class="fil0 str3" x1="1441.48" y1="749.71" x2="1545.36" y2= "263.52" />
  <path class="fil0 str8" d="M1618.35 691.29c6.18,18.35 9.53,38 9.53,58.42"/>
  <path class="fil0 str8" d="M1483.23 570.85c63.44,13.49 114.71,59.87 135.12,120.44"/>
  <text x="1472.37" y="695.16"  class="fil2 fnt2">a</text>
  <text x="1633.91" y="498.82"  class="fil2 fnt2">a</text>
  <text x="1733.46" y="498.82"  class="fil2 fnt0">r</text>
  <line class="fil0 str2" x1="1084.54" y1="190.89" x2="1539.85" y2= "289.32" />
  <circle class="fil1 str7" cx="1084.54" cy="190.89" r="17.4"/>
  <line class="fil0 str3" x1="1441.48" y1="749.71" x2="1914.27" y2= "595.85" />
  <line class="fil0 str3" x1="1590.09" y1="727.19" x2="1635.22" y2= "838.2" />
  <text x="1594.61" y="921.88"  class="fil2 fnt2">j</text>
  <text x="1689.78" y="953.44"  class="fil2 fnt1">circle</text>
  <text x="543.71" y="339.29"  class="fil2 fnt0">L</text>
  <text x="631.48" y="370.85"  class="fil2 fnt3">seg</text>
  <text x="1383.73" y="104.63"  class="fil2 fnt2">r</text>
  <text x="1470.34" y="104.63"  class="fil2 fnt0">L</text>
  <text x="1558.11" y="136.19"  class="fil2 fnt3">seg</text>
  <g>
   <path class="fil3" d="M1994.08 572.49l-551.83 179.58 -1.54 -4.72 551.83 -179.58 1.54 4.72zm58.36 -21.6l-101.25 88.71 0.5 -3.65 0.4 -3.61 0.3 -3.58 0.2 -3.55 0.11 -3.52 0.01 -3.49 -0.09 -3.45 -0.19 -3.42 -0.29 -3.39 -0.39 -3.36 -0.48 -3.33 -0.58 -3.3 -0.68 -3.26 -0.78 -3.23 -0.88 -3.2 -0.97 -3.17 -1.07 -3.14 -1.17 -3.1 -1.27 -3.07 -1.37 -3.04 -1.47 -3.01 -1.57 -2.97 -1.67 -2.94 -1.76 -2.91 -1.86 -2.88 -1.96 -2.85 -2.06 -2.81 -2.16 -2.78 -2.26 -2.75 -2.35 -2.72 -2.46 -2.68 -2.55 -2.65 0 0 134.06 12.13z"/>
  </g>
  <g>
   <path class="fil3" d="M1268.97 211.59l174.87 537.35 -4.72 1.54 -174.87 -537.35 4.72 -1.54zm-21.6 -58.36l88.71 101.25 -3.65 -0.5 -3.61 -0.4 -3.58 -0.3 -3.55 -0.2 -3.52 -0.11 -3.49 -0.01 -3.45 0.09 -3.42 0.18 -3.39 0.29 -3.36 0.39 -3.33 0.48 -3.3 0.58 -3.26 0.68 -3.23 0.78 -3.2 0.88 -3.17 0.97 -3.14 1.07 -3.1 1.17 -3.07 1.27 -3.04 1.37 -3.01 1.47 -2.97 1.57 -2.95 1.67 -2.91 1.76 -2.88 1.86 -2.85 1.96 -2.81 2.06 -2.78 2.16 -2.75 2.26 -2.72 2.35 -2.68 2.46 -2.65 2.55 0 0 12.13 -134.06z"/>
  </g>
  <line class="fil0 str3" x1="1462.27" y1="118.14" x2="1384.94" y2= "255.83" />
  <line class="fil0 str3" x1="1342.07" y1="562.32" x2="1093.55" y2= "700" />
  <text x="-3.68" y="773.13"  class="fil2 fnt4">circle body attached frame</text>
 </g>
</svg>
