<?xml version="1.0" encoding="UTF-8"?>
<!DOCTYPE svg PUBLIC "-//W3C//DTD SVG 1.1//EN" "http://www.w3.org/Graphics/SVG/1.1/DTD/svg11.dtd">
<!-- Creator: CorelDRAW 2021.5 -->
<svg xmlns="http://www.w3.org/2000/svg" xml:space="preserve" width="151.069mm" height="53.4066mm" version="1.1" style="shape-rendering:geometricPrecision; text-rendering:geometricPrecision; image-rendering:optimizeQuality; fill-rule:evenodd; clip-rule:evenodd"
viewBox="0 0 10867.55 3841.94"
 xmlns:xlink="http://www.w3.org/1999/xlink"
 xmlns:xodm="http://www.corel.com/coreldraw/odm/2003">
 <defs>
  <style type="text/css">
   <![CDATA[
    .str1 {stroke:#2B2A29;stroke-width:14.39;stroke-miterlimit:22.9256}
    .str2 {stroke:#2B2A29;stroke-width:7.19;stroke-miterlimit:22.9256}
    .str0 {stroke:#D2D2D2;stroke-width:7.19;stroke-miterlimit:22.9256}
    .fil0 {fill:none}
    .fil3 {fill:#FEFEFE}
    .fil1 {fill:#2B2A29}
    .fil4 {fill:#5151FF}
    .fil2 {fill:#2B2A29;fill-rule:nonzero}
    .fnt2 {font-weight:normal;font-size:228.4px;font-family:'Times New Roman'}
    .fnt5 {font-weight:bold;font-size:228.4px;font-family:'Times New Roman'}
    .fnt0 {font-weight:normal;font-size:253.78px;font-family:'Times New Roman'}
    .fnt8 {font-weight:normal;font-size:304.53px;font-family:'Times New Roman'}
    .fnt6 {font-style:italic;font-weight:normal;font-size:228.4px;font-family:'Times New Roman'}
    .fnt1 {font-style:italic;font-weight:normal;font-size:253.78px;font-family:'Times New Roman'}
    .fnt4 {font-weight:normal;font-size:114.2px;font-family:'Times New Roman';baseline-shift:super}
    .fnt7 {font-weight:normal;font-size:114.2px;font-family:'Times New Roman';baseline-shift:sub}
    .fnt3 {font-style:italic;font-weight:normal;font-size:114.2px;font-family:'Times New Roman';baseline-shift:sub}
   ]]>
  </style>
 </defs>
 <g id="Ebene_x0020_1">
  <metadata id="CorelCorpID_0Corel-Layer"/>
  <line class="fil0 str0" x1="431.64" y1="2769.93" x2="3988.73" y2= "1043.43" />
  <text x="2587.74" y="176.38"  class="fil1 fnt0">ANCFcable2D </text>
  <text x="4173.63" y="176.38"  class="fil1 fnt1">i</text>
  <circle class="fil0 str1" cx="3698.68" cy="1578.34" r="863.25"/>
  <g id="_1882304556816">
   <line class="fil0 str1" x1="3626.74" y1="1578.34" x2="3770.62" y2= "1578.34" />
   <line class="fil0 str1" x1="3698.68" y1="1650.28" x2="3698.68" y2= "1506.4" />
  </g>
  <g>
   <path class="fil2" d="M4282.77 2085.08l-586.44 -504.02 4.69 -5.45 586.44 504.02 -4.69 5.45zm70.59 55.93l-185.82 -58.51 4.88 -2.12 4.78 -2.22 4.66 -2.32 4.55 -2.42 4.43 -2.52 4.32 -2.61 4.2 -2.7 4.09 -2.81 3.99 -2.9 3.86 -3.01 3.75 -3.1 3.64 -3.19 3.52 -3.29 3.41 -3.4 3.29 -3.49 3.19 -3.59 3.06 -3.69 2.96 -3.78 2.84 -3.88 2.73 -3.99 2.61 -4.07 2.5 -4.18 2.39 -4.27 2.27 -4.37 2.16 -4.47 2.05 -4.57 1.93 -4.66 1.82 -4.76 1.7 -4.86 1.59 -4.96 1.48 -5.06 1.37 -5.15 0 0 85.78 174.92z"/>
  </g>
  <text x="3872.19" y="2682.63"  class="fil1 fnt0">circle</text>
  <text x="4435.64" y="2682.63"  class="fil1 fnt0"> </text>
  <text x="4499.08" y="2682.63"  class="fil1 fnt1">j</text>
  <text x="4043.36" y="1827.01"  class="fil1 fnt2">r</text>
  <text x="4119.42" y="1872.69"  class="fil1 fnt3">j</text>
  <g>
   <path class="fil2" d="M3615.37 1612.55l-3182.5 1160.76 -2.46 -6.76 3182.5 -1160.76 2.46 6.76zm83.31 -34.21l-141.93 133.45 0.54 -5.3 0.4 -5.24 0.25 -5.2 0.12 -5.15 -0.03 -5.09 -0.17 -5.05 -0.3 -4.99 -0.45 -4.94 -0.59 -4.89 -0.73 -4.84 -0.87 -4.78 -1.01 -4.74 -1.15 -4.68 -1.29 -4.63 -1.43 -4.59 -1.58 -4.53 -1.71 -4.47 -1.86 -4.43 -1.99 -4.38 -2.14 -4.32 -2.28 -4.27 -2.42 -4.22 -2.55 -4.17 -2.7 -4.12 -2.84 -4.07 -2.98 -4.01 -3.12 -3.97 -3.26 -3.91 -3.41 -3.86 -3.54 -3.81 -3.69 -3.76 -3.83 -3.71 0 0 194.53 10.74z"/>
  </g>
  <text x="3080.16" y="1790.84"  class="fil1 fnt4">0</text>
  <text x="3137.26" y="1905.04"  class="fil1 fnt5">p</text>
  <text x="3264.29" y="1950.72"  class="fil1 fnt3">m1</text>
  <g id="_1882309240928">
   <g>
    <path class="fil2" d="M2499.77 2773.53l-2068.13 0 0 -7.19 2068.13 0 0 7.19zm89.99 -3.6l-179.07 76.74 2.32 -4.8 2.17 -4.79 2.02 -4.8 1.88 -4.8 1.72 -4.8 1.58 -4.79 1.42 -4.8 1.27 -4.8 1.13 -4.8 0.97 -4.79 0.83 -4.8 0.67 -4.8 0.53 -4.8 0.37 -4.79 0.23 -4.8 0.07 -4.8 -0.07 -4.8 -0.23 -4.8 -0.37 -4.79 -0.53 -4.8 -0.67 -4.8 -0.83 -4.8 -0.97 -4.79 -1.13 -4.8 -1.27 -4.8 -1.42 -4.8 -1.58 -4.79 -1.72 -4.8 -1.88 -4.8 -2.02 -4.8 -2.17 -4.79 -2.32 -4.8 0 0 179.07 76.74z"/>
   </g>
   <g>
    <path class="fil2" d="M435.24 701.8l0 2068.13 -7.19 0 0 -2068.13 7.19 0zm-3.6 -89.99l76.74 179.07 -4.8 -2.32 -4.8 -2.17 -4.79 -2.02 -4.8 -1.88 -4.8 -1.72 -4.8 -1.58 -4.79 -1.42 -4.8 -1.27 -4.8 -1.13 -4.8 -0.97 -4.79 -0.83 -4.8 -0.67 -4.8 -0.53 -4.8 -0.37 -4.79 -0.23 -4.8 -0.07 -4.8 0.07 -4.8 0.23 -4.79 0.37 -4.8 0.53 -4.8 0.67 -4.8 0.83 -4.79 0.97 -4.8 1.13 -4.8 1.27 -4.8 1.42 -4.79 1.58 -4.8 1.72 -4.8 1.88 -4.8 2.02 -4.79 2.17 -4.8 2.32 0 0 76.74 -179.07z"/>
   </g>
   <g>
    <path class="fil2" d="M51.12 3271.3l377.64 -503.53 5.76 4.32 -377.64 503.53 -5.76 -4.32zm-51.12 74.15l46.05 -189.3 2.45 4.73 2.53 4.62 2.62 4.5 2.71 4.37 2.81 4.26 2.89 4.14 2.99 4.01 3.07 3.9 3.17 3.78 3.25 3.66 3.34 3.53 3.43 3.42 3.52 3.3 3.61 3.18 3.7 3.06 3.79 2.94 3.88 2.82 3.97 2.7 4.06 2.58 4.15 2.46 4.24 2.34 4.33 2.22 4.42 2.1 4.51 1.98 4.6 1.86 4.69 1.74 4.78 1.62 4.87 1.5 4.96 1.37 5.05 1.26 5.14 1.14 5.24 1.01 0 0 -168.84 97.21z"/>
   </g>
  </g>
  <path class="fil0 str1" d="M1764.27 1231.83c1417.27,-287.75 2227.14,-575.5 3846.88,0"/>
  <text x="9212.38" y="923.66"  class="fil1 fnt0">ANCFcable2D </text>
  <text x="10798.27" y="923.66"  class="fil1 fnt1">i</text>
  <circle class="fil0 str1" cx="8344.77" cy="1754.7" r="863.25"/>
  <g id="_1882309241024">
   <line class="fil0 str1" x1="8272.84" y1="1754.7" x2="8416.71" y2= "1754.7" />
   <line class="fil0 str1" x1="8344.77" y1="1826.64" x2="8344.77" y2= "1682.76" />
  </g>
  <g>
   <path class="fil2" d="M8928.87 2261.44l-586.44 -504.02 4.69 -5.45 586.44 504.02 -4.69 5.45zm70.59 55.93l-185.82 -58.51 4.88 -2.12 4.78 -2.22 4.66 -2.32 4.55 -2.42 4.43 -2.52 4.32 -2.61 4.2 -2.7 4.09 -2.81 3.99 -2.9 3.86 -3.01 3.75 -3.1 3.64 -3.19 3.52 -3.29 3.41 -3.4 3.29 -3.49 3.19 -3.59 3.06 -3.69 2.96 -3.78 2.84 -3.88 2.73 -3.99 2.61 -4.07 2.5 -4.18 2.39 -4.27 2.27 -4.37 2.16 -4.47 2.05 -4.57 1.93 -4.66 1.82 -4.76 1.7 -4.86 1.59 -4.96 1.48 -5.06 1.37 -5.15 0 0 85.78 174.92z"/>
  </g>
  <text x="8518.29" y="2858.99"  class="fil1 fnt0">circle </text>
  <text x="9145.18" y="2858.99"  class="fil1 fnt1">j</text>
  <text x="8724.45" y="2026.37"  class="fil1 fnt2">r</text>
  <text x="8800.51" y="2072.05"  class="fil1 fnt3">j</text>
  <g>
   <path class="fil2" d="M8264.87 1796.26l-2076.69 976.93 -3.06 -6.5 2076.69 -976.93 3.06 6.5zm79.9 -41.56l-129.37 145.67 0.06 -5.33 -0.07 -5.27 -0.21 -5.2 -0.35 -5.14 -0.48 -5.07 -0.61 -5.01 -0.76 -4.94 -0.89 -4.88 -1.02 -4.82 -1.16 -4.76 -1.29 -4.69 -1.43 -4.63 -1.57 -4.56 -1.7 -4.5 -1.83 -4.44 -1.98 -4.37 -2.11 -4.31 -2.24 -4.24 -2.38 -4.18 -2.52 -4.12 -2.65 -4.05 -2.78 -3.99 -2.93 -3.92 -3.06 -3.86 -3.19 -3.8 -3.33 -3.73 -3.47 -3.67 -3.6 -3.61 -3.74 -3.54 -3.87 -3.48 -4.01 -3.41 -4.14 -3.35 0 0 194.7 -6.78z"/>
  </g>
  <text x="6900.54" y="2015.07"  class="fil1 fnt4">0</text>
  <text x="6957.64" y="2129.27"  class="fil1 fnt5">p</text>
  <text x="7084.67" y="2174.95"  class="fil1 fnt3">m1</text>
  <g id="_1882309229696">
   <g>
    <path class="fil2" d="M8254.78 2773.53l-2068.13 0 0 -7.19 2068.13 0 0 7.19zm89.99 -3.6l-179.07 76.74 2.32 -4.8 2.17 -4.79 2.02 -4.8 1.88 -4.8 1.72 -4.8 1.58 -4.79 1.42 -4.8 1.27 -4.8 1.13 -4.8 0.97 -4.79 0.83 -4.8 0.67 -4.8 0.53 -4.8 0.37 -4.79 0.23 -4.8 0.07 -4.8 -0.07 -4.8 -0.23 -4.8 -0.37 -4.79 -0.53 -4.8 -0.67 -4.8 -0.83 -4.8 -0.97 -4.79 -1.13 -4.8 -1.27 -4.8 -1.42 -4.8 -1.58 -4.79 -1.72 -4.8 -1.88 -4.8 -2.02 -4.8 -2.17 -4.79 -2.32 -4.8 0 0 179.07 76.74z"/>
   </g>
   <g>
    <path class="fil2" d="M6190.24 701.8l0 2068.13 -7.19 0 0 -2068.13 7.19 0zm-3.6 -89.99l76.74 179.07 -4.8 -2.32 -4.8 -2.17 -4.79 -2.02 -4.8 -1.88 -4.8 -1.72 -4.8 -1.58 -4.79 -1.42 -4.8 -1.27 -4.8 -1.13 -4.8 -0.97 -4.79 -0.83 -4.8 -0.67 -4.8 -0.53 -4.8 -0.37 -4.79 -0.23 -4.8 -0.07 -4.8 0.07 -4.8 0.23 -4.79 0.37 -4.8 0.53 -4.8 0.67 -4.8 0.83 -4.79 0.97 -4.8 1.13 -4.8 1.27 -4.8 1.42 -4.79 1.58 -4.8 1.72 -4.8 1.88 -4.8 2.02 -4.79 2.17 -4.8 2.32 0 0 76.74 -179.07z"/>
   </g>
   <g>
    <path class="fil2" d="M5806.13 3271.3l377.64 -503.53 5.76 4.32 -377.64 503.53 -5.76 -4.32zm-51.12 74.15l46.05 -189.3 2.45 4.73 2.53 4.62 2.62 4.5 2.71 4.37 2.81 4.26 2.89 4.14 2.99 4.01 3.07 3.9 3.17 3.78 3.25 3.66 3.34 3.53 3.43 3.42 3.52 3.3 3.61 3.18 3.7 3.06 3.79 2.94 3.88 2.82 3.97 2.7 4.06 2.58 4.15 2.46 4.24 2.34 4.33 2.22 4.42 2.1 4.51 1.98 4.6 1.86 4.69 1.74 4.78 1.62 4.87 1.5 4.96 1.37 5.05 1.26 5.14 1.14 5.24 1.01 0 0 -168.84 97.21z"/>
   </g>
  </g>
  <path class="fil0 str1" d="M8099.1 1363.68c954.12,-287.75 1499.33,-575.5 2589.75,0"/>
  <circle class="fil3 str1" cx="8924.24" cy="1114.85" r="35.97"/>
  <g>
   <path class="fil2" d="M2981.93 838.22l2.22 14.21 -38.13 6.03 -37.81 6.16 -37.53 6.28 -37.29 6.4 -37.08 6.53 -36.91 6.65 -36.78 6.78 -36.7 6.9 -36.65 7.01 -36.62 7.13 -36.67 7.25 -36.72 7.37 -36.84 7.48 -36.98 7.58 -37.16 7.71 -37.39 7.81 -37.64 7.92 -37.95 8.04 -38.28 8.14 -38.66 8.25 -39.08 8.35 -39.53 8.45 -40.03 8.55 -40.55 8.66 -41.13 8.75 -41.74 8.86 -42.38 8.96 -43.07 9.04 -43.8 9.14 -44.56 9.24 -45.36 9.33 -46.21 9.42 -2.86 -14.1 46.18 -9.42 45.34 -9.32 44.53 -9.24 43.78 -9.14 43.05 -9.04 42.36 -8.95 41.72 -8.86 41.11 -8.75 40.55 -8.66 40.03 -8.55 39.53 -8.45 39.08 -8.35 38.67 -8.25 38.29 -8.14 37.95 -8.04 37.67 -7.93 37.41 -7.81 37.19 -7.71 37 -7.6 36.87 -7.48 36.77 -7.38 36.7 -7.25 36.68 -7.14 36.7 -7.02 36.74 -6.9 36.84 -6.79 36.97 -6.65 37.14 -6.55 37.34 -6.42 37.59 -6.29 37.88 -6.16 38.19 -6.04zm90.03 -6.73l-165.13 103.37 1.56 -5.09 1.41 -5.07 1.26 -5.06 1.12 -5.02 0.96 -5.01 0.82 -4.99 0.67 -4.96 0.52 -4.93 0.37 -4.91 0.22 -4.88 0.08 -4.87 -0.07 -4.84 -0.22 -4.82 -0.37 -4.8 -0.52 -4.78 -0.66 -4.75 -0.81 -4.73 -0.96 -4.7 -1.11 -4.68 -1.25 -4.66 -1.41 -4.63 -1.55 -4.61 -1.7 -4.59 -1.85 -4.57 -1.99 -4.54 -2.15 -4.52 -2.29 -4.5 -2.45 -4.47 -2.59 -4.45 -2.73 -4.42 -2.88 -4.41 -3.04 -4.38 0 0 188.74 48.28z"/>
  </g>
  <text x="2280.96" y="856.19"  class="fil1 fnt6">s</text>
  <text x="2369.85" y="901.87"  class="fil1 fnt7">0</text>
  <g>
   <path class="fil2" d="M4152.2 667.1l-0.35 14.39 -23.57 -0.58 -23.39 -0.61 -23.21 -0.63 -23.07 -0.63 -22.96 -0.63 -22.86 -0.62 -22.81 -0.59 -22.77 -0.56 -22.76 -0.5 -22.78 -0.45 -22.83 -0.39 -22.89 -0.31 -22.99 -0.22 -23.11 -0.12 -23.26 -0.01 -23.44 0.11 -23.65 0.24 -23.88 0.38 -24.14 0.53 -24.42 0.69 -24.72 0.87 -25.08 1.06 -25.44 1.24 -25.82 1.45 -26.25 1.67 -26.7 1.89 -27.16 2.13 -27.67 2.37 -28.18 2.63 -28.75 2.9 -29.31 3.18 -29.93 3.47 -1.71 -14.29 30.03 -3.48 29.43 -3.19 28.85 -2.9 28.29 -2.65 27.77 -2.39 27.27 -2.13 26.8 -1.91 26.35 -1.67 25.93 -1.46 25.54 -1.24 25.16 -1.06 24.83 -0.87 24.52 -0.7 24.23 -0.53 23.96 -0.38 23.73 -0.24 23.52 -0.11 23.34 0.01 23.17 0.12 23.05 0.22 22.95 0.31 22.87 0.39 22.82 0.45 22.79 0.5 22.8 0.56 22.83 0.59 22.88 0.62 22.96 0.63 23.07 0.63 23.21 0.63 23.36 0.61 23.56 0.58zm89.79 9.34l-180.85 72.43 2.43 -4.74 2.29 -4.74 2.14 -4.75 1.99 -4.76 1.83 -4.75 1.69 -4.76 1.54 -4.76 1.39 -4.76 1.24 -4.77 1.09 -4.77 0.94 -4.78 0.79 -4.78 0.64 -4.78 0.49 -4.78 0.34 -4.79 0.19 -4.79 0.04 -4.8 -0.11 -4.8 -0.26 -4.81 -0.41 -4.81 -0.56 -4.81 -0.71 -4.82 -0.86 -4.82 -1.01 -4.82 -1.17 -4.83 -1.3 -4.83 -1.46 -4.83 -1.61 -4.83 -1.76 -4.84 -1.91 -4.84 -2.06 -4.85 -2.21 -4.85 0 0 177.18 81.01z"/>
  </g>
  <text x="3703.81" y="571.12"  class="fil1 fnt6">s</text>
  <text x="3792.7" y="616.8"  class="fil1 fnt7">1</text>
  <text x="1368.54" y="1691.65"  class="fil1 fnt4">0</text>
  <text x="1425.64" y="1805.85"  class="fil1 fnt5">r</text>
  <text x="1527.02" y="1805.85"  class="fil1 fnt2">(s</text>
  <text x="1691.96" y="1851.53"  class="fil1 fnt7">0</text>
  <text x="1749.07" y="1805.85"  class="fil1 fnt2">)</text>
  <g>
   <path class="fil2" d="M3016.97 1020.29l-2583.31 1752.62 -4.04 -5.96 2583.31 -1752.62 4.04 5.96zm72.45 -53.5l-105.09 164.04 -0.78 -5.27 -0.89 -5.19 -1.01 -5.11 -1.14 -5.02 -1.27 -4.93 -1.4 -4.86 -1.51 -4.77 -1.64 -4.68 -1.76 -4.6 -1.88 -4.52 -2.01 -4.43 -2.13 -4.35 -2.26 -4.26 -2.39 -4.18 -2.5 -4.1 -2.63 -4.01 -2.76 -3.93 -2.88 -3.84 -3 -3.76 -3.13 -3.68 -3.25 -3.59 -3.37 -3.5 -3.5 -3.42 -3.62 -3.34 -3.75 -3.25 -3.87 -3.17 -4 -3.09 -4.11 -3 -4.24 -2.92 -4.37 -2.83 -4.5 -2.76 -4.61 -2.66 0 0 191.27 -37.03z"/>
  </g>
  <line class="fil0 str2" x1="431.64" y1="2769.93" x2="2302.02" y2= "1862.11" />
  <text x="2236.4" y="1698.95"  class="fil1 fnt4">0</text>
  <text x="2293.51" y="1813.15"  class="fil1 fnt5">r</text>
  <text x="2394.88" y="1813.15"  class="fil1 fnt2">(s</text>
  <text x="2559.83" y="1858.83"  class="fil1 fnt7">1</text>
  <text x="2616.93" y="1813.15"  class="fil1 fnt2">)</text>
  <text x="7669.48" y="1305.01"  class="fil1 fnt6">s</text>
  <text x="7758.37" y="1350.69"  class="fil1 fnt7">0</text>
  <text x="7815.47" y="1305.01"  class="fil1 fnt2">=0</text>
  <text x="575.52" y="3777.06"  class="fil1 fnt8">a)</text>
  <text x="6330.51" y="3777.08"  class="fil1 fnt8">b)</text>
  <g>
   <path class="fil2" d="M8785.8 972.6l3.09 14.06 -22.6 5.02 -22.32 5.08 -22.06 5.12 -21.85 5.19 -21.66 5.26 -21.49 5.33 -21.37 5.41 -21.26 5.5 -21.2 5.58 -21.14 5.68 -21.14 5.78 -21.16 5.9 -21.2 6.01 -21.28 6.12 -21.39 6.26 -21.53 6.39 -21.69 6.52 -21.89 6.67 -22.11 6.82 -22.37 6.98 -22.65 7.14 -22.97 7.31 -23.31 7.47 -23.68 7.65 -24.09 7.85 -24.52 8.04 -24.98 8.24 -25.48 8.42 -26 8.65 -26.54 8.86 -27.13 9.08 -27.75 9.31 -4.58 -13.64 27.75 -9.31 27.14 -9.08 26.56 -8.87 26.01 -8.65 25.49 -8.44 25.01 -8.24 24.54 -8.05 24.12 -7.85 23.71 -7.67 23.35 -7.49 23 -7.31 22.7 -7.15 22.42 -6.99 22.16 -6.83 21.93 -6.68 21.75 -6.54 21.57 -6.4 21.44 -6.27 21.34 -6.15 21.27 -6.02 21.22 -5.91 21.2 -5.8 21.21 -5.7 21.26 -5.61 21.34 -5.51 21.44 -5.42 21.57 -5.34 21.72 -5.27 21.92 -5.21 22.14 -5.15 22.39 -5.09 22.66 -5.04zm89.44 -12.29l-158.41 113.41 1.24 -5.19 1.09 -5.15 0.94 -5.11 0.81 -5.09 0.65 -5.05 0.51 -5.02 0.36 -4.99 0.22 -4.96 0.06 -4.93 -0.08 -4.89 -0.22 -4.86 -0.37 -4.83 -0.51 -4.79 -0.67 -4.77 -0.81 -4.73 -0.96 -4.7 -1.11 -4.67 -1.25 -4.64 -1.4 -4.6 -1.54 -4.57 -1.69 -4.54 -1.83 -4.51 -1.98 -4.47 -2.13 -4.44 -2.27 -4.42 -2.42 -4.37 -2.57 -4.35 -2.71 -4.31 -2.86 -4.29 -3.01 -4.24 -3.16 -4.22 -3.29 -4.18 0 0 191.37 36.49z"/>
  </g>
  <text x="8793.47" y="914.19"  class="fil1 fnt6">s</text>
  <text x="8882.36" y="959.87"  class="fil1 fnt7">1</text>
  <circle class="fil3 str1" cx="3089.42" cy="966.79" r="35.97"/>
  <circle class="fil3 str1" cx="4251.95" cy="915.67" r="35.97"/>
  <circle class="fil4 str1" cx="1764.27" cy="1231.83" r="35.97"/>
  <circle class="fil4 str1" cx="5611.15" cy="1231.83" r="35.97"/>
  <circle class="fil4 str1" cx="10688.85" cy="1363.68" r="35.97"/>
  <text x="10652.35" y="1568.94"  class="fil1 fnt6">n</text>
  <text x="10766.55" y="1614.62"  class="fil1 fnt7">1</text>
  <text x="7892.01" y="1502.06"  class="fil1 fnt6">n</text>
  <text x="8006.21" y="1547.74"  class="fil1 fnt7">0</text>
  <text x="1720.42" y="1444.2"  class="fil1 fnt6">n</text>
  <text x="1834.62" y="1489.88"  class="fil1 fnt7">0</text>
  <text x="5545.19" y="1465.79"  class="fil1 fnt6">n</text>
  <text x="5659.39" y="1511.47"  class="fil1 fnt7">1</text>
  <circle class="fil4 str1" cx="8099.1" cy="1363.68" r="35.97"/>
  <g>
   <path class="fil2" d="M3155.48 1028l545.75 547.8 -5.09 5.08 -545.75 -547.8 5.09 -5.08zm-66.06 -61.21l180.75 72.69 -5.04 1.74 -4.93 1.84 -4.83 1.96 -4.72 2.06 -4.62 2.17 -4.5 2.27 -4.4 2.37 -4.3 2.49 -4.19 2.58 -4.09 2.7 -3.98 2.8 -3.88 2.91 -3.77 3.01 -3.66 3.11 -3.55 3.23 -3.45 3.33 -3.35 3.44 -3.24 3.55 -3.14 3.65 -3.03 3.76 -2.92 3.86 -2.81 3.97 -2.71 4.08 -2.6 4.18 -2.5 4.29 -2.39 4.4 -2.29 4.5 -2.18 4.61 -2.08 4.71 -1.97 4.82 -1.86 4.92 -1.76 5.04 0 0 -72.02 -181.02z"/>
  </g>
  <text x="3280.17" y="1078.48"  class="fil1 fnt4">0</text>
  <text x="3337.28" y="1192.68"  class="fil1 fnt5">d</text>
  <text x="3464.31" y="1238.36"  class="fil1 fnt3">(k=0)</text>
  <g>
   <path class="fil2" d="M4172.56 958.2l-399.51 193.91 -3.14 -6.47 399.51 -193.91 3.14 6.47zm79.39 -42.53l-127.58 147.23 -0.01 -5.32 -0.14 -5.27 -0.27 -5.2 -0.41 -5.13 -0.55 -5.07 -0.68 -5 -0.81 -4.93 -0.95 -4.88 -1.09 -4.81 -1.22 -4.74 -1.35 -4.67 -1.49 -4.61 -1.62 -4.55 -1.76 -4.47 -1.89 -4.42 -2.03 -4.35 -2.17 -4.29 -2.29 -4.22 -2.43 -4.15 -2.57 -4.09 -2.7 -4.02 -2.84 -3.96 -2.96 -3.88 -3.11 -3.83 -3.24 -3.76 -3.37 -3.7 -3.51 -3.63 -3.65 -3.56 -3.78 -3.5 -3.91 -3.43 -4.05 -3.37 -4.19 -3.3 0 0 194.61 -9.15z"/>
  </g>
  <line class="fil0 str2" x1="2706.64" y1="1665.71" x2="3395.87" y2= "1331.18" />
  <g>
   <path class="fil2" d="M4197.04 987.05l-495.6 593.59 -5.52 -4.6 495.6 -593.59 5.52 4.6zm54.91 -71.38l-55.85 186.64 -2.19 -4.86 -2.29 -4.75 -2.39 -4.63 -2.48 -4.51 -2.58 -4.4 -2.68 -4.29 -2.77 -4.17 -2.86 -4.05 -2.96 -3.93 -3.06 -3.83 -3.15 -3.7 -3.25 -3.59 -3.35 -3.48 -3.44 -3.36 -3.54 -3.24 -3.63 -3.14 -3.73 -3.01 -3.82 -2.9 -3.93 -2.79 -4.01 -2.67 -4.11 -2.55 -4.21 -2.45 -4.31 -2.32 -4.4 -2.21 -4.5 -2.1 -4.6 -1.98 -4.69 -1.86 -4.78 -1.76 -4.88 -1.63 -4.98 -1.53 -5.08 -1.4 -5.17 -1.29 0 0 173.67 -88.27z"/>
  </g>
  <text x="3907.94" y="1267.51"  class="fil1 fnt4">0</text>
  <text x="3965.04" y="1381.71"  class="fil1 fnt5">d</text>
  <text x="4092.07" y="1427.39"  class="fil1 fnt3">(k=1)</text>
  <g>
   <path class="fil2" d="M8150.02 1437.97l197.8 314.82 -6.09 3.83 -197.8 -314.82 6.09 -3.83zm-50.92 -74.28l160.25 110.8 -5.3 0.58 -5.22 0.71 -5.14 0.83 -5.06 0.97 -4.98 1.09 -4.9 1.22 -4.82 1.35 -4.74 1.47 -4.66 1.6 -4.58 1.73 -4.5 1.86 -4.42 1.98 -4.35 2.11 -4.26 2.24 -4.18 2.36 -4.1 2.49 -4.02 2.61 -3.94 2.75 -3.86 2.86 -3.78 3 -3.7 3.12 -3.63 3.25 -3.55 3.37 -3.46 3.5 -3.38 3.63 -3.31 3.76 -3.22 3.88 -3.14 4.01 -3.06 4.14 -2.99 4.27 -2.91 4.39 -2.82 4.52 0 0 -30.29 -192.45z"/>
  </g>
  <text x="8184.08" y="1430.21"  class="fil1 fnt4">0</text>
  <text x="8241.18" y="1544.41"  class="fil1 fnt5">d</text>
  <text x="8368.21" y="1590.09"  class="fil1 fnt3">(k=0)</text>
  <g>
   <path class="fil2" d="M8866.51 1183.96l-519.07 573.16 -5.34 -4.83 519.07 -573.16 5.34 4.83zm57.74 -69.12l-63.32 184.24 -1.99 -4.94 -2.1 -4.83 -2.19 -4.72 -2.29 -4.61 -2.4 -4.5 -2.5 -4.39 -2.6 -4.27 -2.7 -4.17 -2.8 -4.05 -2.9 -3.94 -3.01 -3.83 -3.1 -3.72 -3.2 -3.6 -3.3 -3.5 -3.41 -3.39 -3.5 -3.27 -3.6 -3.17 -3.7 -3.06 -3.81 -2.94 -3.91 -2.83 -4.01 -2.72 -4.11 -2.61 -4.21 -2.5 -4.31 -2.39 -4.41 -2.27 -4.51 -2.17 -4.61 -2.05 -4.71 -1.94 -4.81 -1.83 -4.91 -1.72 -5.01 -1.61 -5.11 -1.5 0 0 177.08 -81.21z"/>
  </g>
  <text x="8670.2" y="1335.51"  class="fil1 fnt4">0</text>
  <text x="8727.31" y="1449.71"  class="fil1 fnt5">d</text>
  <text x="8854.34" y="1495.39"  class="fil1 fnt3">(k=1)</text>
 </g>
</svg>
