<?xml version="1.0" encoding="UTF-8"?>
<!DOCTYPE svg PUBLIC "-//W3C//DTD SVG 1.1//EN" "http://www.w3.org/Graphics/SVG/1.1/DTD/svg11.dtd">
<!-- Creator: CorelDRAW 2021.5 -->
<svg xmlns="http://www.w3.org/2000/svg" xml:space="preserve" width="140.133mm" height="111.329mm" version="1.1" style="shape-rendering:geometricPrecision; text-rendering:geometricPrecision; image-rendering:optimizeQuality; fill-rule:evenodd; clip-rule:evenodd"
viewBox="0 0 16276.54 12930.95"
 xmlns:xlink="http://www.w3.org/1999/xlink"
 xmlns:xodm="http://www.corel.com/coreldraw/odm/2003">
 <defs>
  <style type="text/css">
   <![CDATA[
    .str0 {stroke:black;stroke-width:8.2;stroke-linejoin:bevel;stroke-miterlimit:10}
    .fil0 {fill:none}
    .fil1 {fill:#2B2A29}
    .fil2 {fill:#0978C8;fill-rule:nonzero}
    .fnt2 {font-weight:normal;font-size:491.7px;font-family:'Arial'}
    .fnt0 {font-weight:normal;font-size:491.7px;font-family:'Times New Roman'}
    .fnt3 {font-weight:normal;font-size:245.86px;font-family:'Arial';baseline-shift:sub}
    .fnt1 {font-weight:normal;font-size:245.86px;font-family:'Times New Roman';baseline-shift:sub}
   ]]>
  </style>
 </defs>
 <g id="Ebene_x0020_1">
  <metadata id="CorelCorpID_0Corel-Layer"/>
  <line class="fil0 str0" x1="6628.52" y1="4202.23" x2="7959.09" y2= "4367.45" />
  <polyline class="fil0 str0" points="6809.96,704.73 6628.52,875.85 6628.52,4202.23 "/>
  <line class="fil0 str0" x1="8140.52" y1="871.42" x2="7959.09" y2= "1041.06" />
  <line class="fil0 str0" x1="7959.09" y1="1041.06" x2="7959.09" y2= "4367.45" />
  <polyline class="fil0 str0" points="8140.52,4196.33 8140.52,2629.76 8140.52,871.42 "/>
  <line class="fil0 str0" x1="6628.52" y1="875.85" x2="7959.09" y2= "1041.06" />
  <polyline class="fil0 str0" points="6809.96,704.73 7383.79,777.01 8140.52,871.42 "/>
  <line class="fil0 str0" x1="7959.09" y1="4367.45" x2="8140.52" y2= "4196.33" />
  <polyline class="fil0 str0" points="12055.09,2772.84 12055.09,3272.91 12484.35,3326.01 13384.17,3436.64 "/>
  <polyline class="fil0 str0" points="13266.16,1635.53 12055.09,2772.84 13384.17,2938.05 "/>
  <line class="fil0 str0" x1="13384.17" y1="2938.05" x2="13384.17" y2= "3436.64" />
  <line class="fil0 str0" x1="14595.24" y1="1802.22" x2="13384.17" y2= "2938.05" />
  <line class="fil0 str0" x1="14595.24" y1="2300.81" x2="14595.24" y2= "1802.22" />
  <line class="fil0 str0" x1="13384.17" y1="3436.64" x2="14224.98" y2= "2648.93" />
  <line class="fil0 str0" x1="14224.98" y1="2647.46" x2="14595.24" y2= "2300.81" />
  <line class="fil0 str0" x1="13266.16" y1="1635.53" x2="13323.69" y2= "1642.9" />
  <line class="fil0 str0" x1="13325.17" y1="1642.9" x2="14595.24" y2= "1802.22" />
  <line class="fil0 str0" x1="949.73" y1="11357.31" x2="1449.79" y2= "11419.26" />
  <polyline class="fil0 str0" points="1435.04,7576.59 949.73,8030.92 949.73,9960.37 949.73,11357.31 "/>
  <line class="fil0 str0" x1="1935.11" y1="7638.54" x2="1449.79" y2= "8092.88" />
  <line class="fil0 str0" x1="1449.79" y1="11419.26" x2="1449.79" y2= "8092.88" />
  <polyline class="fil0 str0" points="1935.11,10964.93 1935.11,9559.14 1935.11,7638.54 "/>
  <line class="fil0 str0" x1="1449.79" y1="8092.88" x2="949.73" y2= "8030.92" />
  <polyline class="fil0 str0" points="1935.11,7638.54 1442.42,7576.59 1435.04,7576.59 "/>
  <line class="fil0 str0" x1="1935.11" y1="10964.93" x2="1449.79" y2= "11419.26" />
  <polyline class="fil0 str0" points="5479.42,9270.02 5479.42,9767.13 6907.33,9945.62 8804.33,10181.64 "/>
  <line class="fil0 str0" x1="5961.78" y1="8812.73" x2="5479.42" y2= "9270.02" />
  <line class="fil0 str0" x1="8804.33" y1="9683.05" x2="5479.42" y2= "9270.02" />
  <polyline class="fil0 str0" points="9289.64,9227.24 7383.79,8989.75 5961.78,8812.73 "/>
  <line class="fil0 str0" x1="9289.64" y1="9227.24" x2="8804.33" y2= "9683.05" />
  <line class="fil0 str0" x1="8804.33" y1="10181.64" x2="8804.33" y2= "9683.05" />
  <line class="fil0 str0" x1="9289.64" y1="9727.31" x2="8804.33" y2= "10181.64" />
  <line class="fil0 str0" x1="9289.64" y1="9727.31" x2="9289.64" y2= "9227.24" />
  <line class="fil0 str0" x1="11571.24" y1="10044.45" x2="14897.62" y2= "10456.01" />
  <line class="fil0 str0" x1="11571.24" y1="10044.45" x2="11571.24" y2= "8712.43" />
  <polyline class="fil0 str0" points="11751.21,8541.31 11571.24,8712.43 14897.62,9126.93 "/>
  <polyline class="fil0 str0" points="15079.06,8955.82 13325.17,8737.5 11751.21,8541.31 "/>
  <line class="fil0 str0" x1="14897.62" y1="9126.93" x2="15079.06" y2= "8955.82" />
  <line class="fil0 str0" x1="14897.62" y1="10456.01" x2="14897.62" y2= "9126.93" />
  <line class="fil0 str0" x1="15079.06" y1="10286.37" x2="15079.06" y2= "8955.82" />
  <line class="fil0 str0" x1="14897.62" y1="10456.01" x2="15079.06" y2= "10286.37" />
  <line class="fil0 str0" x1="16272.44" y1="2904.13" x2="16272.44" y2= "2902.65" />
  <line class="fil0 str0" x1="13325.17" y1="625.08" x2="13323.69" y2= "625.08" />
  <line class="fil0 str0" x1="12112.62" y1="3674.14" x2="12115.57" y2= "3674.14" />
  <line class="fil0 str0" x1="13323.69" y1="625.08" x2="13325.17" y2= "625.08" />
  <line class="fil0 str0" x1="16272.44" y1="2902.65" x2="16272.44" y2= "2904.13" />
  <line class="fil0 str0" x1="13323.69" y1="2286.05" x2="13325.17" y2= "2286.05" />
  <line class="fil0 str0" x1="12115.57" y1="3674.14" x2="12112.62" y2= "3674.14" />
  <line class="fil0 str0" x1="12720.37" y1="3106.22" x2="12718.89" y2= "3106.22" />
  <polygon class="fil0 str0" points="1691.71,9528.16 1691.71,9528.16 "/>
  <polygon class="fil0 str0" points="6311.38,10506.17 6311.38,10507.64 "/>
  <line class="fil0 str0" x1="7143.35" y1="9727.31" x2="7143.35" y2= "9724.36" />
  <polygon class="fil0 str0" points="6311.38,10506.17 6311.38,10506.17 "/>
  <line class="fil0 str0" x1="7143.35" y1="9724.36" x2="7140.4" y2= "9724.36" />
  <line class="fil0 str0" x1="9997.31" y1="9085.63" x2="9997.31" y2= "9084.16" />
  <line class="fil0 str0" x1="949.73" y1="4396.94" x2="1449.79" y2= "4458.9" />
  <polyline class="fil0 str0" points="1435.04,616.23 949.73,1070.56 949.73,3000.01 949.73,4396.94 "/>
  <line class="fil0 str0" x1="1935.11" y1="678.18" x2="1449.79" y2= "1132.52" />
  <line class="fil0 str0" x1="1449.79" y1="4458.9" x2="1449.79" y2= "1132.52" />
  <polyline class="fil0 str0" points="1935.11,4004.56 1935.11,2598.78 1935.11,678.18 "/>
  <line class="fil0 str0" x1="1449.79" y1="1132.52" x2="949.73" y2= "1070.56" />
  <polyline class="fil0 str0" points="1935.11,678.18 1442.42,616.23 1435.04,616.23 "/>
  <line class="fil0 str0" x1="1935.11" y1="4004.56" x2="1449.79" y2= "4458.9" />
  <polygon class="fil0 str0" points="1691.71,2567.8 1691.71,2567.8 "/>
  <g id="_2632026152512">
   <text x="2448.35" y="2936.13"  class="fil1 fnt0">e</text>
   <text x="2666.59" y="3034.47"  class="fil1 fnt1">1</text>
   <text x="261.51" y="3005.1"  class="fil1 fnt0">e</text>
   <text x="479.75" y="3103.44"  class="fil1 fnt1">3</text>
   <text x="1589.03" y="226.68"  class="fil1 fnt0">e</text>
   <text x="1807.27" y="325.02"  class="fil1 fnt1">2</text>
  </g>
  <text x="2448.35" y="9896.49"  class="fil1 fnt0">e</text>
  <text x="2666.59" y="9994.84"  class="fil1 fnt1">1</text>
  <text x="261.51" y="9965.46"  class="fil1 fnt0">e</text>
  <text x="479.75" y="10063.81"  class="fil1 fnt1">3</text>
  <text x="1589.03" y="7187.04"  class="fil1 fnt0">e</text>
  <text x="1807.27" y="7285.39"  class="fil1 fnt1">2</text>
  <text x="4841.04" y="8991.76"  class="fil1 fnt0">e</text>
  <text x="5059.28" y="9090.1"  class="fil1 fnt1">2</text>
  <text x="7634.39" y="8668.2"  class="fil1 fnt0">e</text>
  <text x="7852.62" y="8766.54"  class="fil1 fnt1">1</text>
  <text x="6927.84" y="10361.59"  class="fil1 fnt0">e</text>
  <text x="7146.08" y="10459.94"  class="fil1 fnt1">3</text>
  <text x="13407.06" y="7956.36"  class="fil1 fnt0">e</text>
  <text x="13625.3" y="8054.7"  class="fil1 fnt1">3</text>
  <text x="9803.78" y="3204.38"  class="fil1 fnt0">e</text>
  <text x="10022.01" y="3302.72"  class="fil1 fnt1">3</text>
  <text x="14482.15" y="3067"  class="fil1 fnt0">e</text>
  <text x="14700.39" y="3165.35"  class="fil1 fnt1">3</text>
  <text x="10502.99" y="8779.24"  class="fil1 fnt0">e</text>
  <text x="10721.23" y="8877.58"  class="fil1 fnt1">2</text>
  <text x="6909.72" y="302.42"  class="fil1 fnt0">e</text>
  <text x="7127.96" y="400.77"  class="fil1 fnt1">2</text>
  <text x="14501.21" y="8576"  class="fil1 fnt0">e</text>
  <text x="14719.45" y="8674.34"  class="fil1 fnt1">1</text>
  <text x="13505.34" y="1488.42"  class="fil1 fnt0">e</text>
  <text x="13723.57" y="1586.77"  class="fil1 fnt1">1</text>
  <text x="8821.67" y="1712.79"  class="fil1 fnt0">e</text>
  <text x="9039.9" y="1811.14"  class="fil1 fnt1">1</text>
  <text x="12298.89" y="3956.48"  class="fil1 fnt0">e</text>
  <text x="12517.13" y="4054.82"  class="fil1 fnt1">2</text>
  <g>
   <path class="fil2" d="M2255.05 9608.9l-564.61 -70.57 2.53 -20.33 564.61 70.57 -2.53 20.33zm239.05 19.56l-266.59 94.13 31.36 -250.9 235.23 156.77z"/>
  </g>
  <g>
   <path class="fil2" d="M1452.66 7250.3l0 584.44 -20.49 0 0 -584.44 20.49 0zm-10.24 -239.63l126.46 252.86 -252.85 0 126.38 -252.86z"/>
  </g>
  <g>
   <path class="fil2" d="M748.06 10136.89l445.43 -418.53 14.03 14.94 -445.43 418.53 -14.03 -14.94zm-167.62 171.55l97.67 -265.31 173.15 184.27 -270.82 81.04z"/>
  </g>
  <g>
   <path class="fil2" d="M2255.05 2648.54l-564.61 -70.57 2.53 -20.33 564.61 70.57 -2.53 20.33zm239.05 19.56l-266.59 94.13 31.36 -250.9 235.23 156.77z"/>
  </g>
  <g>
   <path class="fil2" d="M1452.66 289.94l0 584.44 -20.49 0 0 -584.44 20.49 0zm-10.24 -239.63l126.46 252.86 -252.85 0 126.38 -252.86z"/>
  </g>
  <g>
   <path class="fil2" d="M748.06 3176.52l445.43 -418.53 14.03 14.94 -445.43 418.53 -14.03 -14.94zm-167.62 171.55l97.67 -265.31 173.15 184.27 -270.82 81.04z"/>
  </g>
  <g>
   <path class="fil2" d="M7394.04 296.03l0 576.86 -20.49 0 0 -576.86 20.49 0zm-10.24 -239.63l126.46 252.86 -252.85 0 126.38 -252.86z"/>
  </g>
  <g>
   <path class="fil2" d="M10092 2883.31l-2044.21 -253.71 2.53 -20.33 2044.21 253.71 -2.53 20.33zm239.07 19.35l-266.51 94.36 31.14 -250.93 235.37 156.57z"/>
  </g>
  <g>
   <path class="fil2" d="M13335.41 1695.2l0 590.86 -20.49 0 0 -590.86 20.49 0zm-10.24 -239.63l126.46 252.86 -252.85 0 126.38 -252.86z"/>
  </g>
  <g>
   <path class="fil2" d="M14441.94 2686.24l-454.27 -56.65 2.53 -20.33 454.27 56.65 -2.53 20.33zm239.06 19.48l-266.57 94.21 31.29 -250.91 235.27 156.7z"/>
  </g>
  <g>
   <path class="fil2" d="M12280.51 3502.84l431.38 -404.1 14.01 14.96 -431.38 404.1 -14.01 -14.96zm-167.88 171.3l98.08 -265.16 172.87 184.54 -270.94 80.62z"/>
  </g>
  <g>
   <path class="fil2" d="M4797.58 9166.36l689.01 86.13 -2.53 20.33 -689.01 -86.13 2.53 -20.33zm-239.05 -19.56l266.59 -94.13 -31.36 250.91 -235.23 -156.78z"/>
  </g>
  <g>
   <path class="fil2" d="M7394.04 8657.03l0 592.33 -20.49 0 0 -592.33 20.49 0zm-10.24 -239.63l126.46 252.86 -252.85 0 126.38 -252.86z"/>
  </g>
  <g>
   <path class="fil2" d="M6732.34 10095.1l401.03 -378.2 14.05 14.91 -401.03 378.2 -14.05 -14.91zm-167.32 171.87l97.18 -265.5 173.49 183.96 -270.68 81.54z"/>
  </g>
  <g>
   <path class="fil2" d="M10236.38 9104.89l1336.12 165.29 -2.51 20.33 -1336.12 -165.29 2.51 -20.33zm-239.07 -19.26l266.47 -94.47 -31.05 250.94 -235.43 -156.48z"/>
  </g>
  <g>
   <path class="fil2" d="M13335.41 8179.91l0 654.95 -20.49 0 0 -654.95 20.49 0zm-10.24 -239.63l126.46 252.86 -252.85 0 126.38 -252.86z"/>
  </g>
  <g>
   <path class="fil2" d="M8522.22 1477.3l-374.39 353.07 -14.05 -14.91 374.39 -353.07 14.05 14.91zm167.32 -171.87l-97.18 265.5 -173.49 -183.96 270.68 -81.54z"/>
  </g>
  <g>
   <path class="fil2" d="M14199.97 8693.25l-150.54 141.02 -14.01 -14.96 150.54 -141.02 14.01 14.96zm167.88 -171.3l-98.08 265.16 -172.87 -184.54 270.94 -80.62z"/>
  </g>
  <text x="-45.73" y="5141.87"  class="fil1 fnt2">Initial position</text>
  <text x="-45.73" y="12407.45"  class="fil1 fnt2">Initial position</text>
  <text x="5393.79" y="5014.77"  class="fil1 fnt2">Rotated 90° about</text>
  <text x="5393.79" y="5564.08"  class="fil1 fnt2">the e</text>
  <text x="6624.15" y="5564.08"  class="fil1 fnt2"> axis</text>
  <text x="6487.42" y="5662.43"  class="fil1 fnt3">2</text>
  <text x="11338.7" y="5012.35"  class="fil1 fnt2">Rotated 90° about</text>
  <text x="11338.7" y="5561.67"  class="fil1 fnt2">the e</text>
  <text x="12569.06" y="5561.67"  class="fil1 fnt2"> axis</text>
  <text x="12432.33" y="5660.01"  class="fil1 fnt3">3</text>
  <text x="5387.46" y="12280.34"  class="fil1 fnt2">Rotated 90° about</text>
  <text x="5387.46" y="12829.65"  class="fil1 fnt2">the e</text>
  <text x="6617.82" y="12829.65"  class="fil1 fnt2"> axis</text>
  <text x="6481.09" y="12928"  class="fil1 fnt3">3</text>
  <text x="11364.44" y="12280.34"  class="fil1 fnt2">Rotated 90° about</text>
  <text x="11364.44" y="12829.65"  class="fil1 fnt2">the e</text>
  <text x="12594.8" y="12829.65"  class="fil1 fnt2"> axis</text>
  <text x="12458.07" y="12928"  class="fil1 fnt3">2</text>
 </g>
</svg>
